<?xml version="1.0" ?><svg id="Слой_1" style="enable-background:new 0 0 512 512;" version="1.1" viewBox="0 0 512 512" xml:space="preserve" xmlns="http://www.w3.org/2000/svg" xmlns:xlink="http://www.w3.org/1999/xlink"><style type="text/css">
	.st0{fill:#234F77;}
	.st1{fill:#0939B2;}
	.st2{fill:#BA0000;}
	.st3{fill:#006BCC;}
	.st4{fill:#E02828;}
	.st5{fill:#1C6C99;}
	.st6{fill:#11AAED;}
	.st7{fill:#132AD3;}
	.st8{fill:#FF8500;}
	.st9{fill:url(#SVGID_1_);}
	.st10{fill:url(#SVGID_2_);}
	.st11{fill:url(#SVGID_3_);}
</style><g id="XMLID_10_"><g><linearGradient gradientUnits="userSpaceOnUse" id="SVGID_1_" x1="8.38" x2="503.62" y1="256" y2="256"><stop offset="2.564103e-002" style="stop-color:#FF9700"/><stop offset="5.528545e-002" style="stop-color:#FF8400"/><stop offset="0.1258" style="stop-color:#FF5C00"/><stop offset="0.1984" style="stop-color:#FF3A00"/><stop offset="0.2726" style="stop-color:#FF2100"/><stop offset="0.3489" style="stop-color:#FF0E00"/><stop offset="0.4288" style="stop-color:#FF0400"/><stop offset="0.5179" style="stop-color:#FF0000"/><stop offset="0.547" style="stop-color:#F1011D"/><stop offset="0.5984" style="stop-color:#DC0349"/><stop offset="0.652" style="stop-color:#CA0570"/><stop offset="0.7073" style="stop-color:#BB078F"/><stop offset="0.7646" style="stop-color:#B008A7"/><stop offset="0.8249" style="stop-color:#A708B9"/><stop offset="0.8901" style="stop-color:#A309C3"/><stop offset="0.9692" style="stop-color:#A109C6"/><stop offset="0.9721" style="stop-color:#A109C6"/><stop offset="1" style="stop-color:#A109C6"/></linearGradient><path class="st9" d="M256,8.4c136.8,0,247.6,110.9,247.6,247.6S392.8,503.6,256,503.6S8.4,392.8,8.4,256S119.2,8.4,256,8.4z     M431,378.3V133.7c0-29.1-23.6-52.7-52.7-52.7H133.7C104.6,81,81,104.6,81,133.7v244.6c0,29.1,23.6,52.7,52.7,52.7h244.6    C407.4,431,431,407.4,431,378.3z"/><linearGradient gradientUnits="userSpaceOnUse" id="SVGID_2_" x1="358.04" x2="388.08" y1="141.19" y2="141.19"><stop offset="2.564103e-002" style="stop-color:#FF9700"/><stop offset="5.528545e-002" style="stop-color:#FF8400"/><stop offset="0.1258" style="stop-color:#FF5C00"/><stop offset="0.1984" style="stop-color:#FF3A00"/><stop offset="0.2726" style="stop-color:#FF2100"/><stop offset="0.3489" style="stop-color:#FF0E00"/><stop offset="0.4288" style="stop-color:#FF0400"/><stop offset="0.5179" style="stop-color:#FF0000"/><stop offset="0.547" style="stop-color:#F1011D"/><stop offset="0.5984" style="stop-color:#DC0349"/><stop offset="0.652" style="stop-color:#CA0570"/><stop offset="0.7073" style="stop-color:#BB078F"/><stop offset="0.7646" style="stop-color:#B008A7"/><stop offset="0.8249" style="stop-color:#A708B9"/><stop offset="0.8901" style="stop-color:#A309C3"/><stop offset="0.9692" style="stop-color:#A109C6"/><stop offset="0.9721" style="stop-color:#A109C6"/><stop offset="1" style="stop-color:#A109C6"/></linearGradient><path class="st10" d="M373.1,156.2c-8.3,0-15-6.7-15-15s6.7-15,15-15s15,6.7,15,15S381.4,156.2,373.1,156.2z"/><linearGradient gradientUnits="userSpaceOnUse" id="SVGID_3_" x1="184.6" x2="327.4" y1="256" y2="256"><stop offset="2.564103e-002" style="stop-color:#FF9700"/><stop offset="5.528545e-002" style="stop-color:#FF8400"/><stop offset="0.1258" style="stop-color:#FF5C00"/><stop offset="0.1984" style="stop-color:#FF3A00"/><stop offset="0.2726" style="stop-color:#FF2100"/><stop offset="0.3489" style="stop-color:#FF0E00"/><stop offset="0.4288" style="stop-color:#FF0400"/><stop offset="0.5179" style="stop-color:#FF0000"/><stop offset="0.547" style="stop-color:#F1011D"/><stop offset="0.5984" style="stop-color:#DC0349"/><stop offset="0.652" style="stop-color:#CA0570"/><stop offset="0.7073" style="stop-color:#BB078F"/><stop offset="0.7646" style="stop-color:#B008A7"/><stop offset="0.8249" style="stop-color:#A708B9"/><stop offset="0.8901" style="stop-color:#A309C3"/><stop offset="0.9692" style="stop-color:#A109C6"/><stop offset="0.9721" style="stop-color:#A109C6"/><stop offset="1" style="stop-color:#A109C6"/></linearGradient><path class="st11" d="M256,184.6c39.4,0,71.4,32,71.4,71.4c0,39.4-32,71.4-71.4,71.4s-71.4-32-71.4-71.4    C184.6,216.6,216.6,184.6,256,184.6z"/></g></g></svg>