<?xml version="1.0" ?><svg id="Слой_1" style="enable-background:new 0 0 512 512;" version="1.1" viewBox="0 0 512 512" xml:space="preserve" xmlns="http://www.w3.org/2000/svg" xmlns:xlink="http://www.w3.org/1999/xlink"><style type="text/css">
	.st0{fill:#234F77;}
	.st1{fill:#0939B2;}
	.st2{fill:#BA0000;}
	.st3{fill:#006BCC;}
	.st4{fill:#E02828;}
	.st5{fill:#1C6C99;}
	.st6{fill:#11AAED;}
	.st7{fill:#132AD3;}
	.st8{fill:#FF8500;}
	.st9{fill:url(#SVGID_1_);}
	.st10{fill:url(#SVGID_2_);}
	.st11{fill:url(#SVGID_3_);}
</style><g><g id="XMLID_3_"><g><path class="st2" d="M203,224c0-12.1,0-24.2,0-36.3c0-4.9,0.5-10.3,1.6-14.6c5.4-24.4,26-41.8,49.3-41.8     c36.9,0,55.8,32,55.8,74.3c0,45-21.1,74.8-56.9,74.8c-23.9,0-42.8-16.8-48.3-39C203.6,236.5,203,230.5,203,224z"/><path class="st2" d="M118.7,77.9c1,23.4,1.9,51.5,1.9,83.7v278.6c0,2.8,2.2,5,5,5c24.1,0,48.3,0,72.4,0c2.8,0,5-2.2,5-5     c0-38,0-76,0-114c0-4.3,5.1-6.6,8.4-3.7c14.1,12.6,35.5,21.3,61.6,21.3c59.1,0,120.4-45.6,120.4-142.1c0-84.6-52.1-135-110.1-135     c-34.3,0-62.1,11.6-81.6,34c-2.8,3.2-8.1,1.7-8.7-2.6c-1-7-1.8-14-2.5-21c-0.3-2.5-2.4-4.5-5-4.5c-20.6,0-41.2,0-61.8,0     C120.8,72.7,118.5,75.1,118.7,77.9z M256,8.4c136.8,0,247.6,110.9,247.6,247.6S392.8,503.6,256,503.6S8.4,392.8,8.4,256     S119.2,8.4,256,8.4z"/></g></g></g></svg>