<?xml version="1.0" ?><svg id="Слой_1" style="enable-background:new 0 0 512 512;" version="1.1" viewBox="0 0 512 512" xml:space="preserve" xmlns="http://www.w3.org/2000/svg" xmlns:xlink="http://www.w3.org/1999/xlink"><style type="text/css">
	.st0{fill:#234F77;}
	.st1{fill:#0939B2;}
	.st2{fill:#BA0000;}
	.st3{fill:#006BCC;}
	.st4{fill:#E02828;}
	.st5{fill:#1C6C99;}
	.st6{fill:#11AAED;}
	.st7{fill:#132AD3;}
	.st8{fill:#FF8500;}
	.st9{fill:url(#SVGID_1_);}
	.st10{fill:url(#SVGID_2_);}
	.st11{fill:url(#SVGID_3_);}
</style><g id="XMLID_7_"><g><path class="st6" d="M256,8.4c136.8,0,247.6,110.9,247.6,247.6S392.8,503.6,256,503.6S8.4,392.8,8.4,256S119.2,8.4,256,8.4z     M446.9,168.9l8.6-11.8l-16.7,6.3c-2.3,0.8-4.6,1.4-7,1.9l-19.5,3.5l7-5.4c10.7-8.3,19.1-19.2,24.4-31.7l1.9-4.5l-4.4,2.2    c-7.1,3.5-14.3,6.6-21.7,9.2c-7.4,2.7-14.9,4.9-22.6,6.7c0,0-3.9-2.9-9.3-6.9c-18.4-13.8-41.9-19-64.4-14.3l-0.5,0.1    c-6.1,1.3-11.9,3.7-17.1,7.2l-4.4,3c-23.8,16-36.9,43.8-33.8,72.3l0.9,8.5l-13.7-2.5c-53.9-9.9-103.6-36-142.4-74.8l-2.2-2.2    l-0.1,0.3c-3.2,10.1-4.7,20.4-4.7,30.6c0,25.8,9.7,51,27.9,70.3l-34.1-9.6c2.8,33.5,24.9,62.3,56.5,73.6l4.2,1.5l-33.6,1.7    c10.8,28.9,37,49.1,67.7,52.1l3,0.3c-28.5,23.4-64.9,35-101.7,32.6l-11-0.7c25.9,19.8,57.2,31.4,89.7,33.1l2.4,0.1l9.9,0.4    c3.2,0.1,6.3,0.2,9.5,0.2c61.1,0,119.9-24,163.6-67l2.2-2.9c33.9-45,53.4-99.3,55.9-155.6l16.1-13.7    C438.6,179,443,174.2,446.9,168.9z"/></g></g></svg>