<?xml version="1.0" encoding="utf-8"?>
<!-- Generator: Adobe Illustrator 16.0.0, SVG Export Plug-In . SVG Version: 6.00 Build 0)  -->
<!DOCTYPE svg PUBLIC "-//W3C//DTD SVG 1.1//EN" "http://www.w3.org/Graphics/SVG/1.1/DTD/svg11.dtd">
<svg version="1.1" xmlns="http://www.w3.org/2000/svg" xmlns:xlink="http://www.w3.org/1999/xlink" x="0px" y="0px" width="300px"
	 height="300px" viewBox="0 0 300 300" enable-background="new 0 0 300 300" xml:space="preserve">
<g id="grid" display="none">
	<g display="inline">
		<line fill="none" stroke="#D3D3D3" stroke-miterlimit="10" x1="25.559" y1="0" x2="25.559" y2="300"/>
		<line fill="none" stroke="#D3D3D3" stroke-miterlimit="10" x1="50.931" y1="0" x2="50.931" y2="300"/>
		<line fill="none" stroke="#D3D3D3" stroke-miterlimit="10" x1="75.955" y1="0" x2="75.955" y2="300"/>
		<line fill="none" stroke="#D3D3D3" stroke-miterlimit="10" x1="100.979" y1="0" x2="100.979" y2="300"/>
		<line fill="none" stroke="#D3D3D3" stroke-miterlimit="10" x1="126.004" y1="0" x2="126.004" y2="300"/>
		<line fill="none" stroke="#D3D3D3" stroke-miterlimit="10" x1="151.376" y1="0" x2="151.376" y2="300"/>
		<line fill="none" stroke="#D3D3D3" stroke-miterlimit="10" x1="176.399" y1="0" x2="176.399" y2="300"/>
		<line fill="none" stroke="#D3D3D3" stroke-miterlimit="10" x1="201.076" y1="0" x2="201.076" y2="300"/>
		<line fill="none" stroke="#D3D3D3" stroke-miterlimit="10" x1="226.101" y1="0" x2="226.101" y2="300"/>
		<line fill="none" stroke="#D3D3D3" stroke-miterlimit="10" x1="251.473" y1="0" x2="251.473" y2="300"/>
		<line fill="none" stroke="#D3D3D3" stroke-miterlimit="10" x1="276.497" y1="0" x2="276.497" y2="300"/>
		<line fill="none" stroke="#D3D3D3" stroke-miterlimit="10" x1="0.689" y1="99.981" x2="299.811" y2="99.981"/>
		<line fill="none" stroke="#D3D3D3" stroke-miterlimit="10" x1="0.689" y1="74.986" x2="299.811" y2="74.986"/>
		<line fill="none" stroke="#D3D3D3" stroke-miterlimit="10" x1="0.689" y1="49.644" x2="299.811" y2="49.644"/>
		<line fill="none" stroke="#D3D3D3" stroke-miterlimit="10" x1="0.689" y1="24.648" x2="299.811" y2="24.648"/>
		<line fill="none" stroke="#D3D3D3" stroke-miterlimit="10" x1="0.689" y1="200.484" x2="299.811" y2="200.484"/>
		<line fill="none" stroke="#D3D3D3" stroke-miterlimit="10" x1="0.689" y1="175.489" x2="299.811" y2="175.489"/>
		<line fill="none" stroke="#D3D3D3" stroke-miterlimit="10" x1="0.689" y1="150.146" x2="299.811" y2="150.146"/>
		<line fill="none" stroke="#D3D3D3" stroke-miterlimit="10" x1="0.689" y1="125.151" x2="299.811" y2="125.151"/>
		<line fill="none" stroke="#D3D3D3" stroke-miterlimit="10" x1="0.689" y1="249.955" x2="299.811" y2="249.955"/>
		<line fill="none" stroke="#D3D3D3" stroke-miterlimit="10" x1="0.689" y1="224.959" x2="299.811" y2="224.959"/>
		<line fill="none" stroke="#D3D3D3" stroke-miterlimit="10" x1="0.689" y1="275.124" x2="299.811" y2="275.124"/>
		<rect x="-0.001" fill="none" stroke="#D3D3D3" stroke-miterlimit="10" width="300.002" height="299.653"/>
	</g>
</g>
<g id="Layer_5">
	<polygon points="214,170 88,170 88,120.092 214,127.026 	"/>
	<path d="M168.854,114.566c0-16.697-13.535-30.233-30.231-30.233c-6.191,0-15.362,2.82-20.155,6.014l-77.776,43.887
		c-15.848,9.021-27.551,21.873-27.551,38.849c0,21.363,17.32,38.684,38.685,38.684c14.441,0,34.784-18.529,34.784-18.529
		l62.822-47.544C160.891,136.672,168.854,127.767,168.854,114.566z"/>
	<circle fill="#FFC622" cx="48.249" cy="175.194" r="29.258"/>
	<path d="M286.859,118.468c0-16.697-13.535-30.233-30.232-30.233c-6.191,0-15.361,2.82-20.154,6.014l-77.777,43.887
		c-15.847,9.021-27.55,21.872-27.55,38.848c0,21.364,17.32,38.685,38.685,38.685c14.441,0,34.785-18.529,34.785-18.529
		l62.822-47.544C278.896,140.572,286.859,131.668,286.859,118.468z"/>
	<circle fill="#FFC622" cx="166.254" cy="179.095" r="29.257"/>
	<path fill="#FFFFFF" d="M41.666,137.159l73.631-42.424l-54.763,41.947c0,0-5.438-1.43-8.514-1.43
		C47.878,135.253,41.666,137.159,41.666,137.159z"/>
	<path fill="#FFFFFF" d="M156.746,143.986l73.631-42.424l-54.764,41.947c0,0-5.438-1.431-8.514-1.431
		C162.959,142.079,156.746,143.986,156.746,143.986z"/>
	<path fill="#F4E78F" d="M44.151,203.135c3.573,0.5,17.824-1.728,25.332-13.144c7.506-11.415,5.138-23.589,1.962-28.357
		c0,0-1.964,9.647-10.377,22.44C52.654,196.868,44.151,203.135,44.151,203.135z"/>
	<path fill="#F4E78F" d="M162.151,207.135c3.573,0.5,17.824-1.728,25.331-13.144c7.507-11.415,5.139-23.589,1.963-28.357
		c0,0-1.964,9.647-10.377,22.44C170.654,200.868,162.151,207.135,162.151,207.135z"/>
</g>
</svg>
