<?xml version="1.0" encoding="utf-8"?>
<!-- Generator: Adobe Illustrator 16.0.0, SVG Export Plug-In . SVG Version: 6.00 Build 0)  -->
<!DOCTYPE svg PUBLIC "-//W3C//DTD SVG 1.1//EN" "http://www.w3.org/Graphics/SVG/1.1/DTD/svg11.dtd">
<svg version="1.1" xmlns="http://www.w3.org/2000/svg" xmlns:xlink="http://www.w3.org/1999/xlink" x="0px" y="0px" width="300px"
	 height="300px" viewBox="0 0 300 300" enable-background="new 0 0 300 300" xml:space="preserve">
<g id="grid" display="none">
	<g display="inline">
		<line fill="none" stroke="#D3D3D3" stroke-miterlimit="10" x1="25.559" y1="0" x2="25.559" y2="300"/>
		<line fill="none" stroke="#D3D3D3" stroke-miterlimit="10" x1="50.931" y1="0" x2="50.931" y2="300"/>
		<line fill="none" stroke="#D3D3D3" stroke-miterlimit="10" x1="75.955" y1="0" x2="75.955" y2="300"/>
		<line fill="none" stroke="#D3D3D3" stroke-miterlimit="10" x1="100.979" y1="0" x2="100.979" y2="300"/>
		<line fill="none" stroke="#D3D3D3" stroke-miterlimit="10" x1="126.004" y1="0" x2="126.004" y2="300"/>
		<line fill="none" stroke="#D3D3D3" stroke-miterlimit="10" x1="151.376" y1="0" x2="151.376" y2="300"/>
		<line fill="none" stroke="#D3D3D3" stroke-miterlimit="10" x1="176.399" y1="0" x2="176.399" y2="300"/>
		<line fill="none" stroke="#D3D3D3" stroke-miterlimit="10" x1="201.076" y1="0" x2="201.076" y2="300"/>
		<line fill="none" stroke="#D3D3D3" stroke-miterlimit="10" x1="226.101" y1="0" x2="226.101" y2="300"/>
		<line fill="none" stroke="#D3D3D3" stroke-miterlimit="10" x1="251.473" y1="0" x2="251.473" y2="300"/>
		<line fill="none" stroke="#D3D3D3" stroke-miterlimit="10" x1="276.497" y1="0" x2="276.497" y2="300"/>
		<line fill="none" stroke="#D3D3D3" stroke-miterlimit="10" x1="0.689" y1="99.981" x2="299.811" y2="99.981"/>
		<line fill="none" stroke="#D3D3D3" stroke-miterlimit="10" x1="0.689" y1="74.986" x2="299.811" y2="74.986"/>
		<line fill="none" stroke="#D3D3D3" stroke-miterlimit="10" x1="0.689" y1="49.644" x2="299.811" y2="49.644"/>
		<line fill="none" stroke="#D3D3D3" stroke-miterlimit="10" x1="0.689" y1="24.648" x2="299.811" y2="24.648"/>
		<line fill="none" stroke="#D3D3D3" stroke-miterlimit="10" x1="0.689" y1="200.484" x2="299.811" y2="200.484"/>
		<line fill="none" stroke="#D3D3D3" stroke-miterlimit="10" x1="0.689" y1="175.489" x2="299.811" y2="175.489"/>
		<line fill="none" stroke="#D3D3D3" stroke-miterlimit="10" x1="0.689" y1="150.146" x2="299.811" y2="150.146"/>
		<line fill="none" stroke="#D3D3D3" stroke-miterlimit="10" x1="0.689" y1="125.151" x2="299.811" y2="125.151"/>
		<line fill="none" stroke="#D3D3D3" stroke-miterlimit="10" x1="0.689" y1="249.955" x2="299.811" y2="249.955"/>
		<line fill="none" stroke="#D3D3D3" stroke-miterlimit="10" x1="0.689" y1="224.959" x2="299.811" y2="224.959"/>
		<line fill="none" stroke="#D3D3D3" stroke-miterlimit="10" x1="0.689" y1="275.124" x2="299.811" y2="275.124"/>
		<rect x="-0.001" fill="none" stroke="#D3D3D3" stroke-miterlimit="10" width="300.002" height="299.653"/>
	</g>
</g>
<g id="Layer_5">
	<g>
		<path fill="#FFFFFF" d="M153.446,243.529c5.021-12.603,6.742-21.059,5.014-27.216c-1.718-6.166-5.374-8.242-7.089-7.631
			c-1.718,0.617-2.601,6.26-1.965,8.696c0.623,2.437-0.891,18.482-9.256,24.861c-8.358,6.39-17.311,12.5-21.739,14.331
			c-4.434,1.831-6.408,8.187-6.381,11.243c0.046,5.196-8.917,23.42-23.097,17.962c-4.83-1.852-14.382-11.06-18.817-16.015
			c-4.437-4.949-11.93-10.98-19.959-9.065c16.023-12.043,28.562-24.084,30.407-39.472c0.792-6.576,5.913-6.478,9.243-5.977
			c3.323,0.503,10.183,4.099,13.157,1.58c2.968-2.518,4.744-7.021,6.793-12.116c2.046-5.089,6.148-2.445,9.179-2.075
			c3.041,0.361,7.861-3.068,10.509-7.164c2.652-4.091,6.378-11.243,6.378-11.243s-11.483-4.355-19.211-1.587
			c-7.72,2.766-17.385,8.894-20.413,9.249c-3.015,0.358-23.02,11.764-37.617,7.182c-4.959-1.552-23.279-3.601-22.521-27.033
			c0.345-10.532,0.691-27.124-6.448-36.915c-7.142-9.791-12.851-13.55-22.433-16.659c13.045-0.071,40.771,5.007,48.888,6.694
			c8.113,1.694,36.545,22.254,40.704,27.786c4.166,5.531,22.653,19.971,32.044,14.425c9.396-5.549-0.01-13.552-6.122-15.724
			c-6.098-2.175-21.071-7.457-23.559-8.987c-2.483-1.537-18.659-15.59-20.334-32.427c-1.671-16.835,0.935-29.146-0.34-34.739
			c-1.281-5.598-3.4-10.167-6.774-12.829c7.821,4.946,15.528,10.905,18.023,13.152c2.501,2.25,8.975,1.386,13.543-0.733
			c4.567-2.117,18.199,1.467,22.288,10.171c4.087,8.709,7.412,34.875,9.502,38.002c2.084,3.121,2.653,22.293,10.637,24.267
			c7.971,1.987,12.3-10.943,11.315-22.454c-0.972-11.515-15.854-32.09-16.917-34.372c-1.058-2.288-12.106-25.685-7.908-44.377
			c4.194-18.698,12.45-26.739,10.031-38.224c11.097,15.76,15.502,20.972,21.002,26.857c7.463,7.981,21.532,8.658,27.724,14.521
			c7.882,7.467,11.672,19.061,9.904,30.349c-1.767,11.284-6.588,34.322-14.975,46.04c-8.392,11.728-11.246,16.26-14.149,18.63
			c-3.154,2.572-2.796,12.262,5.478-0.268c1.886-2.85,12.037-20.465,17.121-27.2c4.766-6.307,12.403-19.457,12.628-22.201
			c0.227-2.744,10.41-31.089,10.945-32.976c0.533-1.886,3.714-11.254,3.603-12.912c2.795,2.389,7.23,7.337,8.063,12.365
			c0.834,5.024,9.347,10.371,18.724,18.467c6.839,5.908,12.571,10.758,13.319,21.623c0.862,12.513-5.003,20.191-9.849,23.868
			c-9.998,7.578-30.709,12.942-34.988,15.202c-4.272,2.255-7.83,4.5-9.54,11.893c-1.709,7.395-13.958,14.084-19.132,14.847
			c-5.23,0.769-10.603,12.638,4.763,6.526c2.874-1.141,10.88-9.831,17.568-13.802c8.265-4.908,14.224-8.536,23.684-11.277
			c10.531-3.041,14.113-0.818,18.176,0.389c4.067,1.208,16.185,8.003,16.096,23.291c-0.092,15.286,6.355,6.922,9.541,7.714
			c3.189,0.792,6.52,14.131,8.146,15.971c1.626,1.837,5.07,7.383,6.665,7.778c1.593,0.399-15.72,0.064-19.582,1.45
			c-3.859,1.383-18.001,4.148-30.008,12.2c-6.126,4.119-17.882,6.172-28.993-0.503c-11.106-6.67-20.068-14.113-23.119-15.196
			c-3.056-1.089-11.404-6.813-14.336-2.854c-2.946,3.956-7.612,10.792,5.09,21.659c4.195,3.581,17.7,4.795,20.6,5.45
			c2.902,0.66,15.154,3.77,18.752,13.132c2.053,5.345,4.271,23.408,3.777,33.513c-0.498,10.107,2.121,17.403,3.021,19.258
			c-8.564-6.006-19.434-10.012-22.592-11.03c-3.557-1.145-11.779-4.495-20.146,1.895c-8.359,6.385-19.261,9.08-22.006,8.851
			c-2.739-0.228-15.583-3.308-17.909-14.16C142.204,263.177,151.537,248.333,153.446,243.529z"/>
		<path fill="#FF931E" d="M227.917,292.526c-0.125,0-0.251-0.037-0.358-0.113c-9.697-6.8-21.91-10.781-22.425-10.947l-0.725-0.238
			c-1.953-0.651-4.904-1.635-8.327-1.635c-3.795,0-7.336,1.234-10.524,3.67c-7.839,5.987-18.347,8.992-22.026,8.992
			c-0.151,0-0.288-0.006-0.41-0.016c-3.297-0.274-16.092-3.563-18.469-14.652c-2.577-12.028,3.448-24.374,6.685-31.007
			c0.675-1.383,1.208-2.476,1.528-3.281c5.08-12.752,6.62-21.021,4.993-26.816c-1.637-5.873-5.013-7.663-6.277-7.211
			c-1.183,0.425-2.196,5.552-1.57,7.949c0.637,2.494-0.75,18.858-9.482,25.517c-7.388,5.648-17.016,12.4-21.879,14.411
			c-4.234,1.749-6.019,7.906-5.995,10.66c0.025,2.845-2.561,9.606-7.303,14.392c-4.884,4.928-10.77,6.421-16.644,4.159
			c-5.211-1.998-15.27-11.948-19.059-16.181c-3.087-3.443-9.321-9.222-16.392-9.222c-0.997,0-1.991,0.117-2.956,0.348
			c-0.289,0.064-0.585-0.075-0.71-0.343c-0.126-0.268-0.047-0.587,0.19-0.766c14.544-10.932,28.265-23.228,30.162-39.046
			c0.538-4.468,3.03-6.733,7.406-6.733c0.766,0,1.6,0.07,2.551,0.213c1.004,0.152,2.292,0.565,3.657,1.002
			c2.132,0.684,4.548,1.458,6.499,1.458c1.099,0,1.917-0.241,2.504-0.738c2.796-2.372,4.516-6.646,6.506-11.597l0.111-0.276
			c0.942-2.343,2.432-3.481,4.553-3.481c1.096,0,2.204,0.293,3.275,0.576c0.716,0.189,1.392,0.368,2.006,0.443
			c2.731,0.331,7.332-2.898,9.909-6.883c2.146-3.312,5.039-8.713,6.013-10.555c-1.826-0.617-7.107-2.232-12.288-2.232
			c-2.225,0-4.184,0.298-5.822,0.885c-3.813,1.365-8.092,3.553-11.867,5.482c-3.942,2.016-7.055,3.607-8.684,3.799
			c-0.59,0.07-2.177,0.729-4.186,1.564c-5.636,2.343-16.126,6.704-25.851,6.705c-2.85,0-5.488-0.374-7.84-1.112
			c-0.485-0.152-1.101-0.309-1.815-0.49c-6.536-1.664-21.842-5.561-21.143-27.16c0.305-9.313,0.872-26.651-6.329-36.526
			c-6.696-9.179-12.071-13.172-22.121-16.433c-0.292-0.095-0.472-0.388-0.425-0.691c0.047-0.303,0.308-0.527,0.614-0.529
			l0.278-0.001c13.673,0,41.923,5.292,48.74,6.708c8.323,1.738,36.867,22.423,41.076,28.022
			c3.371,4.476,16.852,15.422,26.559,15.422c1.795,0,3.366-0.39,4.668-1.159c2.618-1.546,3.845-3.361,3.649-5.396
			c-0.375-3.896-5.853-7.847-9.663-9.2l-1.418-0.505c-6.951-2.476-19.89-7.083-22.258-8.539
			c-2.306-1.428-18.918-15.709-20.629-32.897c-0.94-9.474-0.54-17.38-0.219-23.733c0.242-4.778,0.433-8.552-0.109-10.929
			c-1.354-5.917-3.558-10.115-6.552-12.477c-0.261-0.206-0.315-0.581-0.123-0.852c0.193-0.272,0.563-0.345,0.844-0.167
			c8.147,5.152,15.813,11.15,18.107,13.216c0.847,0.762,2.328,1.165,4.283,1.165c2.631,0,5.918-0.767,8.578-2
			c0.933-0.432,2.166-0.651,3.665-0.651c5.737,0,15.887,3.536,19.452,11.124c2.317,4.937,4.329,15.084,6.104,24.037
			c1.286,6.484,2.5,12.608,3.353,13.884c0.703,1.052,1.199,3.499,1.827,6.596c1.303,6.424,3.271,16.133,8.441,17.411
			c2.198,0.549,4.192-0.129,5.909-1.999c3.407-3.712,5.313-11.852,4.634-19.794c-0.763-9.046-10.549-24.23-14.728-30.715
			c-1.144-1.776-1.9-2.949-2.132-3.447l-0.055-0.119c-2.833-6.109-11.776-27.384-7.896-44.659
			c1.734-7.732,4.125-13.572,6.234-18.725c3.007-7.346,5.18-12.654,3.795-19.233c-0.062-0.291,0.09-0.583,0.362-0.702
			c0.271-0.118,0.59-0.029,0.761,0.213c10.691,15.184,15.102,20.536,20.948,26.79c3.978,4.254,9.864,6.373,15.557,8.422
			c4.752,1.71,9.239,3.325,12.14,6.072c8.02,7.597,11.887,19.437,10.092,30.899c-1.186,7.577-5.779,33.308-15.084,46.307
			c-1.86,2.601-3.449,4.848-4.826,6.795c-4.883,6.906-7.11,10.057-9.436,11.956c-1.241,1.012-1.895,3.412-1.495,4.534
			c0.127,0.358,0.292,0.358,0.38,0.358c0.288,0,1.912-0.289,5.676-5.989c0.54-0.817,1.8-2.915,3.395-5.571
			c4.031-6.713,10.122-16.857,13.749-21.662c4.941-6.539,12.303-19.418,12.504-21.875c0.154-1.869,4.307-13.896,8.546-26.053
			c1.269-3.639,2.271-6.512,2.421-7.043c0.131-0.462,0.419-1.371,0.779-2.505c0.935-2.94,2.878-9.059,2.801-10.195
			c-0.017-0.251,0.119-0.488,0.344-0.601c0.224-0.112,0.494-0.081,0.687,0.083c3.313,2.831,7.467,7.866,8.272,12.738
			c0.579,3.488,5.401,7.378,11.506,12.303c2.248,1.814,4.573,3.689,7.01,5.793l0.202,0.175c6.747,5.828,12.574,10.861,13.332,21.878
			c0.99,14.366-6.729,21.856-10.094,24.409c-7.046,5.34-19.35,9.593-27.491,12.407c-3.535,1.222-6.327,2.187-7.583,2.85
			c-4.38,2.312-7.605,4.488-9.223,11.481c-1.82,7.873-14.7,14.595-19.65,15.324c-2.486,0.365-4.946,3.532-4.804,5.485
			c0.153,2.084,3.685,2.055,9.244-0.158c1.221-0.484,3.625-2.603,6.408-5.055c3.301-2.909,7.408-6.528,11.072-8.703l0.723-0.43
			c8.039-4.776,13.848-8.228,23.106-10.91c3.627-1.047,6.703-1.556,9.403-1.556c3.269,0,5.526,0.758,7.518,1.427
			c0.539,0.181,1.068,0.359,1.606,0.519c4.32,1.284,16.633,8.429,16.543,23.894c-0.026,4.366,0.489,7.113,1.533,8.163
			c0.341,0.343,0.739,0.503,1.253,0.503c0.823,0,1.813-0.412,2.771-0.811c1.268-0.527,2.518-1.003,3.51-0.752
			c2.179,0.541,4.03,5.081,6.225,10.961c0.849,2.271,1.726,4.621,2.239,5.202c0.535,0.605,1.257,1.593,2.02,2.637
			c1.294,1.771,3.46,4.733,4.327,4.949c0.619,0.155,0.58,0.667,0.574,0.725c-0.073,0.652-0.073,0.652-5.017,0.771
			c-4.762,0.115-12.732,0.307-15.079,1.148c-0.803,0.288-2.016,0.627-3.551,1.057c-5.881,1.646-16.828,4.71-26.32,11.075
			c-3.706,2.492-8.831,3.922-14.058,3.922c-5.407,0.001-10.803-1.524-15.605-4.408c-5.694-3.421-10.789-7.016-14.882-9.904
			c-3.751-2.647-6.713-4.738-8.124-5.239c-0.714-0.254-1.665-0.73-2.767-1.281c-2.457-1.229-5.821-2.914-8.298-2.914
			c-1.162,0-2,0.368-2.561,1.125c-2.63,3.531-7.523,10.103,4.994,20.813c3.157,2.694,12.257,4.057,17.146,4.789
			c1.419,0.213,2.54,0.38,3.186,0.526c4.614,1.049,15.72,4.467,19.197,13.517c2.028,5.281,4.33,23.281,3.818,33.768
			c-0.568,11.536,2.924,18.882,2.959,18.955c0.124,0.256,0.06,0.563-0.157,0.748C228.206,292.477,228.062,292.526,227.917,292.526z
			 M152.006,207.955c2.3,0,5.488,2.563,7.057,8.19c1.729,6.157,0.223,14.417-5.035,27.615c-0.338,0.85-0.881,1.961-1.567,3.368
			c-3.17,6.496-9.072,18.59-6.585,30.196c2.193,10.233,14.437,13.426,17.35,13.668c0.092,0.008,0.194,0.012,0.307,0.012
			c2.893,0,13.122-2.514,21.269-8.736c3.411-2.604,7.207-3.926,11.282-3.926c3.625,0,6.692,1.022,8.722,1.698l0.713,0.235
			c0.493,0.159,11.534,3.758,21.051,9.959c-1.234-3.517-2.676-9.898-2.295-17.622c0.492-10.08-1.772-28.144-3.736-33.259
			c-3.262-8.487-13.89-11.741-18.308-12.746c-0.6-0.136-1.7-0.3-3.095-0.509c-5.364-0.804-14.342-2.147-17.772-5.075
			c-13.405-11.47-7.854-18.925-5.185-22.508c0.8-1.081,1.999-1.63,3.563-1.63c2.771,0,6.146,1.689,8.857,3.046
			c1.064,0.533,1.984,0.993,2.626,1.222c1.572,0.559,4.447,2.587,8.426,5.396c4.076,2.877,9.149,6.457,14.805,9.854
			c4.608,2.769,9.781,4.231,14.962,4.23c4.984,0,9.854-1.353,13.361-3.71c9.658-6.477,20.731-9.576,26.68-11.24
			c1.512-0.423,2.705-0.757,3.466-1.029c2.536-0.91,10.32-1.098,15.472-1.223c0.93-0.022,1.875-0.045,2.637-0.07
			c-0.955-0.943-2.095-2.463-3.501-4.388c-0.746-1.02-1.45-1.983-1.947-2.546c-0.635-0.719-1.354-2.594-2.474-5.594
			c-1.45-3.886-3.643-9.759-5.354-10.185c-0.633-0.16-1.662,0.25-2.729,0.693c-1.07,0.445-2.177,0.906-3.25,0.906
			c-0.845,0-1.564-0.293-2.14-0.871c-1.323-1.332-1.926-4.208-1.896-9.053c0.086-14.698-11.562-21.473-15.648-22.688
			c-0.553-0.164-1.096-0.346-1.648-0.532c-1.994-0.669-4.056-1.362-7.12-1.362c-2.582,0-5.544,0.493-9.056,1.507
			c-9.105,2.638-14.856,6.055-22.815,10.785l-0.723,0.429c-3.563,2.116-7.623,5.692-10.885,8.566
			c-2.989,2.634-5.351,4.715-6.772,5.279c-2.979,1.186-5.405,1.786-7.208,1.786c-3.201,0-3.685-1.888-3.744-2.699
			c-0.201-2.751,2.925-6.38,5.868-6.813c5.28-0.778,17.035-7.537,18.613-14.369c1.734-7.495,5.333-9.917,9.857-12.305
			c1.341-0.708,4.173-1.687,7.759-2.926c8.066-2.788,20.258-7.001,27.144-12.221c3.203-2.43,10.551-9.569,9.603-23.327
			c-0.723-10.498-6.097-15.14-12.901-21.018l-0.202-0.174c-2.421-2.09-4.737-3.959-6.978-5.766
			c-6.313-5.092-11.298-9.114-11.954-13.071c-0.684-4.126-4.006-8.432-6.973-11.205c-0.395,1.996-1.501,5.555-2.707,9.353
			c-0.354,1.117-0.639,2.012-0.768,2.467c-0.161,0.567-1.118,3.313-2.444,7.114c-2.909,8.345-8.325,23.877-8.479,25.744
			c-0.24,2.937-7.922,16.133-12.752,22.526c-3.587,4.751-9.658,14.862-13.675,21.552c-1.603,2.669-2.869,4.777-3.424,5.616
			c-2.87,4.346-5.13,6.55-6.719,6.55c-0.721,0-1.289-0.434-1.558-1.189c-0.549-1.54,0.169-4.525,1.883-5.922
			c2.192-1.79,4.39-4.898,9.205-11.708c1.378-1.949,2.968-4.198,4.831-6.801c9.379-13.105,14.028-40.429,14.865-45.773
			c1.731-11.062-1.991-22.479-9.717-29.798c-2.711-2.566-7.078-4.139-11.703-5.803c-5.832-2.099-11.863-4.27-16.047-8.745
			c-5.604-5.995-9.894-11.16-19.552-24.793c0.47,5.832-1.648,11.008-4.243,17.345c-2.09,5.107-4.46,10.896-6.171,18.525
			c-3.793,16.891,5.02,37.841,7.811,43.86l0.055,0.119c0.195,0.418,1.013,1.688,2.049,3.295
			c4.588,7.119,14.133,21.931,14.923,31.286c0.718,8.396-1.275,16.733-4.96,20.746c-2.031,2.212-4.483,3.027-7.13,2.367
			c-5.937-1.468-7.918-11.241-9.364-18.376c-0.577-2.845-1.075-5.302-1.641-6.15c-0.943-1.411-1.959-6.367-3.54-14.335
			c-1.673-8.443-3.757-18.95-6.009-23.749c-3.334-7.098-12.903-10.405-18.32-10.405c-1.298,0-2.383,0.185-3.139,0.535
			c-2.857,1.326-6.26,2.117-9.104,2.117c-2.269,0-4.04-0.514-5.12-1.485c-1.893-1.705-7.495-6.124-13.999-10.512
			c1.619,2.473,2.884,5.678,3.777,9.584c0.58,2.545,0.385,6.396,0.139,11.27c-0.319,6.312-0.717,14.167,0.214,23.547
			c1.662,16.696,17.802,30.571,20.042,31.958c2.254,1.387,15.605,6.14,22.021,8.424l1.418,0.505
			c4.084,1.451,10.039,5.594,10.488,10.258c0.17,1.761-0.432,4.333-4.258,6.593c-1.498,0.885-3.282,1.333-5.304,1.333
			c-10.112,0-24.078-11.3-27.558-15.92c-4.028-5.358-32.447-25.903-40.333-27.55c-6.23-1.295-30.428-5.839-44.854-6.58
			c8.052,3.16,13.027,7.332,19.032,15.564c7.455,10.223,6.878,27.84,6.568,37.304c-0.667,20.596,13.428,24.184,20.202,25.907
			c0.74,0.188,1.378,0.352,1.881,0.509c2.231,0.701,4.744,1.056,7.467,1.056c9.475-0.001,19.425-4.138,25.371-6.609
			c2.261-0.94,3.755-1.562,4.519-1.652c1.406-0.165,4.583-1.789,8.262-3.67c3.809-1.946,8.125-4.153,12.014-5.547
			c1.774-0.635,3.875-0.957,6.244-0.957c6.604,0,13.125,2.444,13.4,2.549c0.167,0.063,0.299,0.194,0.362,0.361
			s0.053,0.354-0.03,0.512c-0.037,0.071-3.771,7.226-6.408,11.294c-2.862,4.427-7.879,7.813-11.107,7.445
			c-0.702-0.086-1.418-0.275-2.177-0.477c-0.994-0.263-2.021-0.534-2.955-0.534c-1.075,0-2.432,0.307-3.393,2.698l-0.111,0.276
			c-2.053,5.104-3.826,9.511-6.858,12.083c-0.811,0.687-1.925,1.035-3.313,1.035c-2.146,0-4.662-0.806-6.88-1.518
			c-1.315-0.421-2.558-0.819-3.462-0.956c-0.888-0.134-1.662-0.199-2.364-0.199c-3.692,0-5.708,1.843-6.165,5.633
			c-1.867,15.57-14.688,27.694-28.718,38.43c0.264-0.015,0.528-0.022,0.792-0.022c7.556,0,14.097,6.038,17.323,9.638
			c4.796,5.358,14.016,14.1,18.576,15.848c5.468,2.106,10.728,0.75,15.308-3.872c4.506-4.547,6.964-10.868,6.941-13.5
			c-0.027-3.139,1.93-9.829,6.768-11.827c3.975-1.644,12.251-7.104,21.598-14.249c8.146-6.212,9.611-21.937,9.03-24.211
			c-0.64-2.451,0.081-8.62,2.359-9.438C151.419,208.002,151.703,207.955,152.006,207.955z"/>
	</g>
	<path fill="#FF931E" d="M163.438,211.361c-4.096-10.698,3.653-49.729-36.533-17.304c23.675-24.823,43.284-24.986-5.725-36.544
		c46.852,8.312,34.275,4.026,27.546-24.859c7.097,15.924,15.134,41.426,26.504,5.604c-4.716,30.276-2.014,29.517,29.662,28.044
		c-31.574,4.046-39.909,6.34-6.949,29.682C169.723,181.542,160.312,174.935,163.438,211.361z"/>
	<path fill="#FFFFFF" d="M157.875,174.375c-0.225-1.878,1.11-3.578,2.98-3.808c1.878-0.228,3.576,1.109,3.802,2.984
		c0.233,1.871-1.104,3.574-2.977,3.805C159.808,177.58,158.104,176.247,157.875,174.375z"/>
	<path fill="#FFFFFF" d="M156.926,164.804c-0.228-1.875,1.104-3.581,2.986-3.812c1.869-0.224,3.578,1.115,3.802,2.99
		c0.227,1.872-1.105,3.572-2.979,3.802C158.858,168.015,157.155,166.681,156.926,164.804z"/>
	<path fill="#FFFFFF" d="M164.514,163.449c-0.202-1.636,0.968-3.132,2.605-3.33c1.644-0.198,3.132,0.97,3.338,2.614
		c0.194,1.639-0.976,3.133-2.611,3.327C166.203,166.262,164.709,165.089,164.514,163.449z"/>
	<path fill="#FFFFFF" d="M170.477,170.046c-0.183-1.525,0.9-2.908,2.424-3.091c1.527-0.184,2.91,0.896,3.092,2.425
		c0.185,1.52-0.899,2.902-2.425,3.092C172.048,172.657,170.66,171.571,170.477,170.046z"/>
	<path fill="#FFFFFF" d="M164.285,170.472c-0.146-1.226,0.733-2.347,1.959-2.495c1.229-0.146,2.35,0.728,2.498,1.956
		c0.149,1.229-0.726,2.35-1.954,2.498C165.557,172.579,164.439,171.706,164.285,170.472z"/>
	<path fill="#FFFFFF" d="M165.642,178.061c-0.233-1.936,1.138-3.691,3.074-3.927c1.93-0.236,3.689,1.144,3.924,3.074
		c0.233,1.938-1.143,3.688-3.077,3.927C167.633,181.368,165.874,179.994,165.642,178.061z"/>
	<path fill="#FFFFFF" d="M159.172,183.251c-0.191-1.517,0.897-2.905,2.417-3.089c1.522-0.186,2.913,0.903,3.092,2.423
		c0.189,1.522-0.896,2.908-2.418,3.089C160.736,185.859,159.352,184.776,159.172,183.251z"/>
	<path fill="#FFFFFF" d="M151.106,177.135c-0.213-1.758,1.039-3.356,2.797-3.572c1.759-0.212,3.355,1.04,3.563,2.795
		c0.216,1.756-1.036,3.354-2.798,3.569C152.918,180.14,151.323,178.891,151.106,177.135z"/>
	<path fill="#FF931E" d="M141.666,172.037c-0.213-1.758,1.039-3.356,2.799-3.571c1.751-0.21,3.349,1.045,3.565,2.797
		c0.214,1.759-1.04,3.357-2.795,3.569C143.476,175.045,141.879,173.793,141.666,172.037z"/>
	<path fill="#FF931E" d="M148.198,156.716c-0.177-1.464,0.868-2.803,2.329-2.978c1.47-0.175,2.8,0.867,2.975,2.332
		c0.181,1.464-0.867,2.797-2.332,2.975C149.706,159.223,148.378,158.181,148.198,156.716z"/>
	<path fill="#FF931E" d="M161.47,150.798c-0.175-1.463,0.87-2.793,2.329-2.966c1.464-0.182,2.796,0.854,2.97,2.328
		c0.182,1.462-0.859,2.792-2.323,2.967C162.978,153.308,161.647,152.265,161.47,150.798z"/>
	<path fill="#FF931E" d="M174.788,161.24c-0.175-1.471,0.868-2.801,2.335-2.979c1.459-0.175,2.792,0.868,2.97,2.326
		c0.178,1.47-0.865,2.801-2.331,2.976C176.299,163.744,174.969,162.701,174.788,161.24z"/>
	<path fill="#FF931E" d="M151.05,192.634c-0.197-1.636,0.974-3.132,2.611-3.33c1.637-0.201,3.131,0.97,3.328,2.611
		c0.2,1.639-0.968,3.129-2.608,3.333C152.742,195.443,151.252,194.275,151.05,192.634z"/>
</g>
</svg>
