<?xml version="1.0" encoding="utf-8"?>
<!-- Generator: Adobe Illustrator 16.0.0, SVG Export Plug-In . SVG Version: 6.00 Build 0)  -->
<!DOCTYPE svg PUBLIC "-//W3C//DTD SVG 1.1//EN" "http://www.w3.org/Graphics/SVG/1.1/DTD/svg11.dtd">
<svg version="1.1" xmlns="http://www.w3.org/2000/svg" xmlns:xlink="http://www.w3.org/1999/xlink" x="0px" y="0px" width="300px"
	 height="300px" viewBox="0 0 300 300" enable-background="new 0 0 300 300" xml:space="preserve">
	 <style>
		 #board
		 {
		 	fill:#cfcfcf;
		 }
	 </style>
<g id="grid" display="none">
	<g display="inline">
		<line fill="none" stroke="#D3D3D3" stroke-miterlimit="10" x1="25.559" y1="0" x2="25.559" y2="300"/>
		<line fill="none" stroke="#D3D3D3" stroke-miterlimit="10" x1="50.931" y1="0" x2="50.931" y2="300"/>
		<line fill="none" stroke="#D3D3D3" stroke-miterlimit="10" x1="75.955" y1="0" x2="75.955" y2="300"/>
		<line fill="none" stroke="#D3D3D3" stroke-miterlimit="10" x1="100.979" y1="0" x2="100.979" y2="300"/>
		<line fill="none" stroke="#D3D3D3" stroke-miterlimit="10" x1="126.004" y1="0" x2="126.004" y2="300"/>
		<line fill="none" stroke="#D3D3D3" stroke-miterlimit="10" x1="151.376" y1="0" x2="151.376" y2="300"/>
		<line fill="none" stroke="#D3D3D3" stroke-miterlimit="10" x1="176.399" y1="0" x2="176.399" y2="300"/>
		<line fill="none" stroke="#D3D3D3" stroke-miterlimit="10" x1="201.076" y1="0" x2="201.076" y2="300"/>
		<line fill="none" stroke="#D3D3D3" stroke-miterlimit="10" x1="226.101" y1="0" x2="226.101" y2="300"/>
		<line fill="none" stroke="#D3D3D3" stroke-miterlimit="10" x1="251.473" y1="0" x2="251.473" y2="300"/>
		<line fill="none" stroke="#D3D3D3" stroke-miterlimit="10" x1="276.497" y1="0" x2="276.497" y2="300"/>
		<line fill="none" stroke="#D3D3D3" stroke-miterlimit="10" x1="0.689" y1="99.981" x2="299.811" y2="99.981"/>
		<line fill="none" stroke="#D3D3D3" stroke-miterlimit="10" x1="0.689" y1="74.986" x2="299.811" y2="74.986"/>
		<line fill="none" stroke="#D3D3D3" stroke-miterlimit="10" x1="0.689" y1="49.644" x2="299.811" y2="49.644"/>
		<line fill="none" stroke="#D3D3D3" stroke-miterlimit="10" x1="0.689" y1="24.648" x2="299.811" y2="24.648"/>
		<line fill="none" stroke="#D3D3D3" stroke-miterlimit="10" x1="0.689" y1="200.484" x2="299.811" y2="200.484"/>
		<line fill="none" stroke="#D3D3D3" stroke-miterlimit="10" x1="0.689" y1="175.489" x2="299.811" y2="175.489"/>
		<line fill="none" stroke="#D3D3D3" stroke-miterlimit="10" x1="0.689" y1="150.146" x2="299.811" y2="150.146"/>
		<line fill="none" stroke="#D3D3D3" stroke-miterlimit="10" x1="0.689" y1="125.151" x2="299.811" y2="125.151"/>
		<line fill="none" stroke="#D3D3D3" stroke-miterlimit="10" x1="0.689" y1="249.955" x2="299.811" y2="249.955"/>
		<line fill="none" stroke="#D3D3D3" stroke-miterlimit="10" x1="0.689" y1="224.959" x2="299.811" y2="224.959"/>
		<line fill="none" stroke="#D3D3D3" stroke-miterlimit="10" x1="0.689" y1="275.124" x2="299.811" y2="275.124"/>
		<rect x="-0.001" fill="none" stroke="#D3D3D3" stroke-miterlimit="10" width="300.002" height="299.653"/>
	</g>
</g>
<g id="beach">
	<path fill-rule="evenodd" clip-rule="evenodd" fill="none" stroke="#cfcfcf" stroke-width="2" stroke-miterlimit="10" d="M315,321
		H-5v-36.425c0,0,9.85-5.659,18.359-8.695c8.51-3.035,23.664-1.998,23.664-1.998s19.49-2.997,28.481-4.994
		c8.99-1.998,26.394-1.332,26.394-1.332s14.696-3.33,23.686-3.33s42.311,0.333,50.968,1.665c5.024,0.772,32.977-4.662,41.634-7.659
		c8.658-2.997,57.069-9.322,57.069-9.322l49.745-3.33V321z"/>
</g>
<g id="board">
	<g>
		<path fill-rule="evenodd" clip-rule="evenodd" d="M224.022,287.381c6.328-1.02,13.104-2.039,19.573-2.978
			c1.413-10.326,1.938-19.65,1.938-19.65s2.69-52.521,3.422-64.808c0.735-12.286,2.814-60.649,2.814-60.649s2.293-0.886,4.156-4.281
			c0.813-1.478,1.1-4.646,1.1-4.646s2.844-0.317,4.893-0.977c1.71-0.552,2.689-1.345,2.689-1.345s0.063-0.854-0.122-1.223
			c-0.16,0.091-0.687,0.463-1.098,0.733c-0.122-0.33-0.181-0.661-0.247-0.855c0.259-0.106,0.585-0.322,0.768-0.554
			c-0.001-0.474,0.119-1.005-0.278-1.037c-0.396-0.03-0.974,0.619-2.444,1.1c-1.85,0.605-4.404,0.979-4.404,0.979
			s-0.789-2.309-1.587-3.668c-0.084-0.609-0.481-1.46-0.735-1.834c-0.475-0.703-0.909-0.414-1.222-0.123
			c-0.624-0.443-0.854-0.61-0.854-0.61l0.365-38.396c0,0,2.227-0.88,3.178-1.955c2.229-2.517,4.402-6.359,4.402-6.359
			s2.056-4.23,2.078-5.747c0.028-1.816-0.691-3.155-1.833-3.424c-0.114,0.243-0.121,0.49-0.121,0.49s0.574-0.012,0.365,1.223
			c-0.32,1.908-1.565,5.178-3.422,7.825c-3.059,4.361-4.525,5.381-4.525,5.381l0.122-19.565c0,0,1.809-0.558,2.934-2.813
			c1.136-2.27,1.47-5.584,1.47-6.603c0-1.019-0.508-4.339-1.591-6.48c-1.387-2.737-3.422-3.057-3.422-3.057
			s-0.668-9.642-1.469-17.607c-0.944-9.369-3.326-16.44-4.892-16.508c-2.813-0.123-3.019,2.946-4.035,7.092
			c-1.126,4.583-1.956,10.027-1.956,10.027s-1.854,1.119-6.329-1.043c-4.985-2.161-9.323-7.516-9.813-7.516
			c-0.488,0-3.911,2.629-1.835,12.717c1.204,3.98,4.831,6.726,6.849,6.969c2.018,0.244,2.996-2.446,5.013-2.69
			c1.59-0.192,4.281,1.468,4.281,1.468s-2.753,16.449-4.036,25.067c-1.283,8.617-5.074,41.519-7.824,66.274
			c-2.061,18.536-5.687,60.171-6.605,93.909c-0.506,18.704,3.06,61.872,3.06,61.872S223.227,283.906,224.022,287.381z
			 M255.682,49.422c0.124,4.401-2.811,7.948-2.811,7.948l-0.366-13.084C252.505,44.286,255.714,43.388,255.682,49.422z M251,124.01
			c0,0,0.793,0.343,0.936,0.507c0.141,0.163,0.509,0.018,0.509,0.018s0.313,2.05,0.396,2.459c0.082,0.406,0.644,2.005,0.644,2.005
			s-0.285,0-0.612,0c-0.25,0-1.871,0-1.871,0V124.01z M252.015,130.735c0,0,0.307,0.021,0.734,0
			c0.428-0.019,1.221-0.123,1.221-0.123s-0.094,1.136-0.121,2.202c-0.017,0.689,0.056,1.398,0,1.589
			c-0.143,0.49-0.61,0.674-0.978,0.979c-0.366,0.305-0.979,0.367-0.979,0.367L252.015,130.735z"/>
	</g>
</g>
<g id="Layer_4" display="none">
	<path display="inline" fill-rule="evenodd" clip-rule="evenodd" d="M243.234,198.813c-0.121,0.069-0.52,0.351-0.831,0.555
		c-0.092-0.25-0.136-0.5-0.187-0.647c0.195-0.08,0.443-0.244,0.581-0.419c-0.001-0.359,0.091-0.762-0.211-0.785
		c-0.3-0.022-0.737,0.469-1.851,0.833c-1.4,0.458-3.334,0.741-3.334,0.741s-0.598-1.748-1.203-2.777
		c-0.063-0.461-0.364-1.105-0.556-1.389c-0.359-0.532-0.688-0.313-0.926-0.093c-0.472-0.335-0.647-0.463-0.647-0.463l0.277-29.071
		c0,0,1.687-0.668,2.406-1.481c1.688-1.905,3.333-4.815,3.333-4.815s1.557-3.202,1.574-4.351c0.021-1.375-0.524-2.39-1.389-2.593
		c-0.086,0.184-0.092,0.371-0.092,0.371s0.436-0.01,0.277,0.926c-0.243,1.444-1.187,3.92-2.592,5.925
		c-2.315,3.302-3.427,4.074-3.427,4.074l0.094-14.814c0,0,1.369-0.422,2.221-2.129c0.86-1.719,1.112-4.228,1.112-5
		s-0.384-3.286-1.204-4.907c-1.05-2.073-2.592-2.314-2.592-2.314s-0.505-7.301-1.111-13.332c-0.715-7.094-2.518-12.447-3.704-12.499
		c-2.129-0.093-2.284,2.23-3.055,5.37c-0.853,3.47-1.481,7.592-1.481,7.592s-1.403,0.847-4.792-0.791
		c-3.774-1.635-7.059-5.69-7.43-5.69c-0.37,0-2.962,1.99-1.389,9.629c0.91,3.014,3.657,5.092,5.185,5.277
		c1.527,0.185,2.27-1.852,3.796-2.037c1.203-0.146,3.241,1.111,3.241,1.111s-2.084,12.455-3.056,18.98
		c-0.972,6.525-3.842,31.437-5.925,50.18c-1.56,14.035-4.305,45.56-5,71.104c-0.384,14.163,2.315,46.849,2.315,46.849
		s3.286,18.193,8.146,22.775c7.093-0.114,9.073-35.46,9.073-35.46s2.037-39.767,2.592-49.069c0.557-9.303,2.13-45.922,2.13-45.922
		s1.736-0.671,3.147-3.241c0.616-1.119,0.833-3.518,0.833-3.518s2.152-0.24,3.704-0.74c1.294-0.418,2.037-1.019,2.037-1.019
		S243.375,199.092,243.234,198.813z M236.568,140.207c0.094,3.333-2.129,6.018-2.129,6.018l-0.276-9.907
		C234.163,136.317,236.593,135.638,236.568,140.207z M234,196.683c0,0,0.112,0.26,0.22,0.384c0.107,0.123,0.142,0.014,0.142,0.014
		s0.115,1.322,0.177,1.632c0.063,0.308,0.365,1.288,0.365,1.288s-0.215,0-0.464,0c-0.188,0-0.439,0-0.439,0V196.683z
		 M235.181,204.552c-0.108,0.371-0.463,0.51-0.741,0.741c-0.276,0.231-0.74,0.278-0.74,0.278l0.093-3.797c0,0,0.231,0.016,0.556,0
		c0.323-0.015,0.925-0.093,0.925-0.093s-0.071,0.86-0.092,1.667C235.168,203.87,235.223,204.407,235.181,204.552z"/>
</g>
</svg>
